Produkcja USA
Data premiery 2003
Bajka animowana
Reżyseria: Andrew Stanton
Scenariusz: Andrew Stanton, Bob Peterson, David Reynolds
Czas trwania: 90 min

This is just Finding.Nemo.2003.1080i.HDTV.DTS.x264-Z@X with Polish audio added besides the original English. All subtitles tracks were preserved, including English.

Polski tytuł: Gdzie jest Nemo. 
Film w pełnym HD, z polską i angielską ścieżką dźwiękową (dual audio) oraz z m.in. angielskimi napisami. Ścieżkę dźwiękową wzięłem z jednego z torrentów stąd (http://torrenty.org/torrent/397804), a obraz wraz z angielską ścieżką z thepiratebay.org.

General
Format                           : Matroska
File size                        : 6.15 GiB
Duration                         : 1h 30mn
Overall bit rate                 : 9 701 Kbps
Writing application              : AVI-Mux GUI 1.17.8.3, Feb 16 201019:42:50

Video
Format                           : AVC
Format/Info                      : Advanced Video Codec
Format profile                   : High@L4.1
Codec ID                         : V_MPEG4/ISO/AVC
Bit rate                         : 8 003 Kbps
Width                            : 1 920 pixels
Height                           : 1 080 pixels
Display aspect ratio             : 16:9
Frame rate                       : 25.000 fps
Color space                      : YUV
Chroma subsampling               : 4:2:0
Bit depth                        : 8 bits
Scan type                        : Progressive
Bits/(Pixel*Frame)               : 0.154
Stream size                      : 4.95 GiB (80%)
Writing library                  : x264 core 67 r1139M 1024283
Encoding settings                : cabac=1 / ref=12 / deblock=1:-3:-3 / analyse=0x3:0x113 / me=umh / subme=9 / psy_rd=0.8:0.7 / mixed_ref=1 / me_range=32 / chroma_me=1 / trellis=2 / 8x8dct=1 / cqm=0 / deadzone=4,4 / chroma_qp_offset=-4 / threads=6 / nr=0 / decimate=1 / mbaff=0 / bframes=5 / b_pyramid=1 / b_adapt=2 / b_bias=0 / direct=3 / wpredb=1 / keyint=250 / keyint_min=25 / scenecut=40 / rc=2pass / bitrate=8003 / ratetol=2.0 / qcomp=0.60 / qpmin=10 / qpmax=45 / qpstep=4 / cplxblur=20.0 / qblur=0.5 / vbv_maxrate=38000 / vbv_bufsize=30000 / ip_ratio=1.40 / pb_ratio=1.30 / aq=1:0.70

Audio #1
Format                           : MPEG Audio
Format version                   : Version 1
Format profile                   : Layer 3
Mode                             : Joint stereo
Codec ID                         : A_MPEG/L3
Bit rate mode                    : Constant
Bit rate                         : 192 Kbps
Channel(s)                       : 2 channels
Sampling rate                    : 48.0 KHz
Video delay                      : 31s 118ms
Stream size                      : 125 MiB (2%)
Writing library                  : LAME3.96.1
Language                         : Polish

Audio #2
ID                               : 3
Format                           : DTS
Format/Info                      : Digital Theater Systems
Codec ID                         : A_DTS
Bit rate mode                    : Constant
Bit rate                         : 1 510 Kbps
Channel(s)                       : 6 channels
Channel positions                : Front: L C R, Side: L R, LFE
Sampling rate                    : 48.0 KHz
Bit depth                        : 24 bits
Stream size                      : 980 MiB (16%)
Language                         : English

Text #1
ID                               : 4
Codec ID/Info                    : UTF-8 Plain Text
Language                         : English / English

Text #2
ID                               : 5
Codec ID/Info                    : UTF-8 Plain Text
Language                         : English / Danish

Text #3
Codec ID/Info                    : UTF-8 Plain Text
Language                         : Slovak

Text #4
Codec ID/Info                    : UTF-8 Plain Text
Language                         : English / Swedish

Text #5
Codec ID/Info                    : UTF-8 Plain Text
Language                         : Arabic / Polish / English

